<mxfile host="app.diagrams.net" agent="Mozilla/5.0 (Macintosh; Intel Mac OS X 10_15_7) AppleWebKit/605.1.15 (KHTML, like Gecko) Version/18.4 Mobile/15E148 Safari/604.1" version="26.2.14">
  <diagram name="Page-1" id="PfKZMwIgy6VGALZis8Dc">
    <mxGraphModel dx="555" dy="408" grid="1" gridSize="10" guides="1" tooltips="1" connect="1" arrows="1" fold="1" page="1" pageScale="1" pageWidth="850" pageHeight="1100" math="0" shadow="0">
      <root>
        <mxCell id="0" />
        <mxCell id="1" parent="0" />
        <mxCell id="j8199OsGkyXpgyM0app1-1" value="" style="swimlane;startSize=0;fillStyle=auto;" parent="1" vertex="1">
          <mxGeometry x="95" y="40" width="660" height="260" as="geometry" />
        </mxCell>
        <mxCell id="j8199OsGkyXpgyM0app1-18" value="" style="edgeStyle=orthogonalEdgeStyle;rounded=0;orthogonalLoop=1;jettySize=auto;html=1;entryX=0.5;entryY=0;entryDx=0;entryDy=0;" parent="j8199OsGkyXpgyM0app1-1" source="j8199OsGkyXpgyM0app1-2" target="j8199OsGkyXpgyM0app1-3" edge="1">
          <mxGeometry relative="1" as="geometry" />
        </mxCell>
        <mxCell id="j8199OsGkyXpgyM0app1-2" value="Data Source" style="shape=cylinder3;whiteSpace=wrap;html=1;boundedLbl=1;backgroundOutline=1;size=15;fillColor=#D4E1F5;" parent="j8199OsGkyXpgyM0app1-1" vertex="1">
          <mxGeometry x="275" y="20" width="110" height="80" as="geometry" />
        </mxCell>
        <mxCell id="j8199OsGkyXpgyM0app1-3" value="Extracting dataset based on data&amp;nbsp;" style="rounded=1;whiteSpace=wrap;html=1;fillColor=light-dark(#a5b9cf, #24374b);" parent="j8199OsGkyXpgyM0app1-1" vertex="1">
          <mxGeometry x="63" y="120" width="535" height="40" as="geometry" />
        </mxCell>
        <mxCell id="j8199OsGkyXpgyM0app1-5" value="&lt;span&gt;cardiovascular&lt;br&gt;disease&lt;/span&gt;" style="rounded=0;whiteSpace=wrap;html=1;fontFamily=Helvetica;fontSize=12;fillColor=light-dark(#84A8CF,#281D00);" parent="j8199OsGkyXpgyM0app1-1" vertex="1">
          <mxGeometry x="270" y="180" width="120" height="60" as="geometry" />
        </mxCell>
        <mxCell id="j8199OsGkyXpgyM0app1-17" value="" style="endArrow=classic;html=1;rounded=0;entryX=0.5;entryY=0;entryDx=0;entryDy=0;" parent="j8199OsGkyXpgyM0app1-1" target="j8199OsGkyXpgyM0app1-5" edge="1">
          <mxGeometry width="50" height="50" relative="1" as="geometry">
            <mxPoint x="330" y="160" as="sourcePoint" />
            <mxPoint x="380" y="110" as="targetPoint" />
          </mxGeometry>
        </mxCell>
        <mxCell id="j8199OsGkyXpgyM0app1-26" value="&lt;div&gt;Data Collection&lt;/div&gt;" style="text;html=1;align=center;verticalAlign=middle;whiteSpace=wrap;rounded=0;fillColor=#f5f5f5;fontColor=#333333;strokeColor=#666666;" parent="j8199OsGkyXpgyM0app1-1" vertex="1">
          <mxGeometry x="15" y="10" width="127" height="30" as="geometry" />
        </mxCell>
        <mxCell id="j8199OsGkyXpgyM0app1-6" value="" style="swimlane;startSize=0;" parent="1" vertex="1">
          <mxGeometry x="95" y="320" width="660" height="260" as="geometry" />
        </mxCell>
        <mxCell id="j8199OsGkyXpgyM0app1-14" value="" style="edgeStyle=orthogonalEdgeStyle;rounded=0;orthogonalLoop=1;jettySize=auto;html=1;" parent="j8199OsGkyXpgyM0app1-6" source="j8199OsGkyXpgyM0app1-9" target="j8199OsGkyXpgyM0app1-10" edge="1">
          <mxGeometry relative="1" as="geometry" />
        </mxCell>
        <mxCell id="j8199OsGkyXpgyM0app1-9" value="Remove duplicate entries" style="rounded=0;whiteSpace=wrap;html=1;fillColor=#FFF2CC;" parent="j8199OsGkyXpgyM0app1-6" vertex="1">
          <mxGeometry x="270" y="30" width="120" height="60" as="geometry" />
        </mxCell>
        <mxCell id="i6hXiYPeF73-tU8b1XCi-25" value="" style="edgeStyle=orthogonalEdgeStyle;rounded=0;orthogonalLoop=1;jettySize=auto;html=1;" parent="j8199OsGkyXpgyM0app1-6" source="j8199OsGkyXpgyM0app1-10" target="j8199OsGkyXpgyM0app1-24" edge="1">
          <mxGeometry relative="1" as="geometry" />
        </mxCell>
        <mxCell id="j8199OsGkyXpgyM0app1-10" value="&lt;p data-pm-slice=&quot;1 1 []&quot; style=&quot;&quot;&gt;&lt;font&gt;Transform the data into numeric values&lt;/font&gt;&lt;/p&gt;" style="rounded=0;whiteSpace=wrap;html=1;fillColor=light-dark(#f3e3b4, #281d00);" parent="j8199OsGkyXpgyM0app1-6" vertex="1">
          <mxGeometry x="435" y="30" width="120" height="60" as="geometry" />
        </mxCell>
        <mxCell id="j8199OsGkyXpgyM0app1-12" value="&lt;p data-pm-slice=&quot;1 1 []&quot; style=&quot;&quot;&gt;&lt;font&gt;Selecting health-related attributes&lt;/font&gt;&lt;/p&gt;" style="rounded=0;whiteSpace=wrap;html=1;fillColor=light-dark(#ffd970, #ededed);" parent="j8199OsGkyXpgyM0app1-6" vertex="1">
          <mxGeometry x="270" y="140" width="120" height="60" as="geometry" />
        </mxCell>
        <mxCell id="i6hXiYPeF73-tU8b1XCi-26" value="" style="edgeStyle=orthogonalEdgeStyle;rounded=0;orthogonalLoop=1;jettySize=auto;html=1;" parent="j8199OsGkyXpgyM0app1-6" source="j8199OsGkyXpgyM0app1-24" target="j8199OsGkyXpgyM0app1-12" edge="1">
          <mxGeometry relative="1" as="geometry" />
        </mxCell>
        <mxCell id="j8199OsGkyXpgyM0app1-24" value="&lt;span data-end=&quot;31&quot; data-start=&quot;14&quot;&gt;SimpleImputer&lt;/span&gt;" style="rounded=0;whiteSpace=wrap;html=1;fillColor=light-dark(#ffe494, #543300);" parent="j8199OsGkyXpgyM0app1-6" vertex="1">
          <mxGeometry x="435" y="140" width="120" height="60" as="geometry" />
        </mxCell>
        <mxCell id="j8199OsGkyXpgyM0app1-27" value="&lt;div&gt;Data Preprocessing&lt;/div&gt;" style="text;html=1;align=center;verticalAlign=middle;whiteSpace=wrap;rounded=0;fillColor=#f5f5f5;fontColor=#333333;strokeColor=#666666;" parent="j8199OsGkyXpgyM0app1-6" vertex="1">
          <mxGeometry x="15" y="10" width="127" height="30" as="geometry" />
        </mxCell>
        <mxCell id="j8199OsGkyXpgyM0app1-30" value="Standardization" style="rounded=0;whiteSpace=wrap;html=1;fillColor=#C3EEAE;" parent="j8199OsGkyXpgyM0app1-6" vertex="1">
          <mxGeometry x="45" y="140" width="150" height="60" as="geometry" />
        </mxCell>
        <mxCell id="i6hXiYPeF73-tU8b1XCi-46" value="" style="edgeStyle=orthogonalEdgeStyle;rounded=0;orthogonalLoop=1;jettySize=auto;html=1;" parent="j8199OsGkyXpgyM0app1-6" source="j8199OsGkyXpgyM0app1-12" target="j8199OsGkyXpgyM0app1-30" edge="1">
          <mxGeometry relative="1" as="geometry" />
        </mxCell>
        <mxCell id="pQ0Z2_A2pilAzZAvQ04B-2" value="Cap outlier&amp;nbsp;" style="rounded=0;whiteSpace=wrap;html=1;fillColor=#FFF2CC;" vertex="1" parent="j8199OsGkyXpgyM0app1-6">
          <mxGeometry x="150" y="30" width="120" height="60" as="geometry" />
        </mxCell>
        <mxCell id="j8199OsGkyXpgyM0app1-13" value="" style="edgeStyle=orthogonalEdgeStyle;rounded=0;orthogonalLoop=1;jettySize=auto;html=1;" parent="1" source="j8199OsGkyXpgyM0app1-5" target="pQ0Z2_A2pilAzZAvQ04B-2" edge="1">
          <mxGeometry relative="1" as="geometry" />
        </mxCell>
        <mxCell id="j8199OsGkyXpgyM0app1-28" value="" style="swimlane;startSize=0;container=0;movable=1;resizable=1;rotatable=1;deletable=1;editable=1;locked=0;connectable=1;" parent="1" vertex="1">
          <mxGeometry x="95" y="600" width="660" height="220" as="geometry" />
        </mxCell>
        <mxCell id="j8199OsGkyXpgyM0app1-63" value="" style="rounded=0;whiteSpace=wrap;html=1;strokeColor=#2D7600;align=center;verticalAlign=middle;fontFamily=Helvetica;fontSize=16;fontColor=#ffffff;horizontal=0;fillColor=light-dark(#e6ffcc, #4a890c);container=1;movable=0;resizable=0;rotatable=0;deletable=0;editable=0;locked=1;connectable=0;" parent="j8199OsGkyXpgyM0app1-28" vertex="1">
          <mxGeometry x="255" y="120" width="150" height="80" as="geometry" />
        </mxCell>
        <mxCell id="j8199OsGkyXpgyM0app1-36" value="Preprocessed Data" style="rounded=0;whiteSpace=wrap;html=1;container=1;movable=1;resizable=1;rotatable=1;deletable=1;editable=1;locked=0;connectable=1;fillColor=light-dark(#b5e29d, #ededed);" parent="j8199OsGkyXpgyM0app1-63" vertex="1">
          <mxGeometry width="150" height="40" as="geometry">
            <mxRectangle width="150" height="40" as="alternateBounds" />
          </mxGeometry>
        </mxCell>
        <mxCell id="j8199OsGkyXpgyM0app1-64" value="" style="endArrow=none;html=1;rounded=0;fontFamily=Helvetica;fontSize=16;fontColor=default;resizable=0;horizontal=0;entryX=0.5;entryY=1;entryDx=0;entryDy=0;exitX=0.5;exitY=1;exitDx=0;exitDy=0;movable=0;rotatable=0;deletable=0;editable=0;locked=1;connectable=0;" parent="j8199OsGkyXpgyM0app1-63" source="j8199OsGkyXpgyM0app1-63" target="j8199OsGkyXpgyM0app1-36" edge="1">
          <mxGeometry width="50" height="50" relative="1" as="geometry">
            <mxPoint x="65" y="-47.3004885946466" as="sourcePoint" />
            <mxPoint x="115" y="-81.086551876537" as="targetPoint" />
          </mxGeometry>
        </mxCell>
        <mxCell id="j8199OsGkyXpgyM0app1-65" value="&lt;span style=&quot;font-size: 12px;&quot;&gt;Train: 80%&lt;/span&gt;" style="text;html=1;align=center;verticalAlign=middle;whiteSpace=wrap;rounded=0;fontFamily=Helvetica;fontSize=16;fontColor=default;horizontal=0;rotation=90;movable=1;resizable=1;rotatable=1;deletable=1;editable=1;locked=0;connectable=1;" parent="j8199OsGkyXpgyM0app1-63" vertex="1">
          <mxGeometry x="30" y="27.43797873556648" width="20" height="64.02195038298845" as="geometry" />
        </mxCell>
        <mxCell id="j8199OsGkyXpgyM0app1-66" value="&lt;span style=&quot;font-size: 12px;&quot;&gt;Test: 20%&lt;/span&gt;" style="text;html=1;align=center;verticalAlign=middle;whiteSpace=wrap;rounded=0;fontFamily=Helvetica;fontSize=16;fontColor=default;horizontal=0;rotation=90;movable=0;resizable=0;rotatable=0;deletable=0;editable=0;locked=1;connectable=0;" parent="j8199OsGkyXpgyM0app1-63" vertex="1">
          <mxGeometry x="100" y="27.43797873556648" width="20" height="64.02195038298845" as="geometry" />
        </mxCell>
        <mxCell id="j8199OsGkyXpgyM0app1-38" value="&lt;div&gt;&lt;span style=&quot;background-color: transparent; color: light-dark(rgb(51, 51, 51), rgb(193, 193, 193));&quot;&gt;Features Scaling&lt;/span&gt;&lt;/div&gt;" style="text;html=1;align=center;verticalAlign=middle;whiteSpace=wrap;rounded=0;fillColor=#f5f5f5;fontColor=#333333;strokeColor=#666666;" parent="1" vertex="1">
          <mxGeometry x="110" y="610" width="127" height="30" as="geometry" />
        </mxCell>
        <mxCell id="i6hXiYPeF73-tU8b1XCi-1" value="" style="swimlane;startSize=0;container=0;fillColor=light-dark(#f7e5ff, #ededed);" parent="1" vertex="1">
          <mxGeometry x="95" y="840" width="660" height="245" as="geometry" />
        </mxCell>
        <mxCell id="i6hXiYPeF73-tU8b1XCi-9" value="Model Train" style="text;html=1;align=center;verticalAlign=middle;whiteSpace=wrap;rounded=0;fillColor=#f5f5f5;fontColor=#333333;strokeColor=#666666;" parent="i6hXiYPeF73-tU8b1XCi-1" vertex="1">
          <mxGeometry x="15" y="10" width="127" height="30" as="geometry" />
        </mxCell>
        <mxCell id="i6hXiYPeF73-tU8b1XCi-32" value="" style="edgeStyle=orthogonalEdgeStyle;rounded=0;orthogonalLoop=1;jettySize=auto;html=1;" parent="i6hXiYPeF73-tU8b1XCi-1" source="i6hXiYPeF73-tU8b1XCi-11" target="i6hXiYPeF73-tU8b1XCi-31" edge="1">
          <mxGeometry relative="1" as="geometry" />
        </mxCell>
        <mxCell id="i6hXiYPeF73-tU8b1XCi-11" value="" style="rounded=0;whiteSpace=wrap;html=1;fillColor=light-dark(#f3dbff, #ededed);" parent="i6hXiYPeF73-tU8b1XCi-1" vertex="1">
          <mxGeometry x="15" y="60" width="275" height="170" as="geometry" />
        </mxCell>
        <mxCell id="i6hXiYPeF73-tU8b1XCi-12" value="Classifiers" style="rounded=0;whiteSpace=wrap;html=1;fillColor=light-dark(#cb9ee0, #ededed);" parent="i6hXiYPeF73-tU8b1XCi-1" vertex="1">
          <mxGeometry x="23.5" y="70" width="258" height="30" as="geometry" />
        </mxCell>
        <mxCell id="i6hXiYPeF73-tU8b1XCi-13" value="&lt;span data-end=&quot;137&quot; data-start=&quot;114&quot;&gt;Logistic Regression&lt;/span&gt;" style="rounded=0;whiteSpace=wrap;html=1;fillColor=light-dark(#e3ccf0, #EDEDED);" parent="i6hXiYPeF73-tU8b1XCi-1" vertex="1">
          <mxGeometry x="23.5" y="107.5" width="120" height="30" as="geometry" />
        </mxCell>
        <mxCell id="i6hXiYPeF73-tU8b1XCi-24" value="XGBoost" style="rounded=0;whiteSpace=wrap;html=1;fillColor=light-dark(#e3ccf0, #EDEDED);" parent="i6hXiYPeF73-tU8b1XCi-1" vertex="1">
          <mxGeometry x="161.5" y="107.5" width="120" height="30" as="geometry" />
        </mxCell>
        <mxCell id="i6hXiYPeF73-tU8b1XCi-23" value="&lt;span data-end=&quot;700&quot; data-start=&quot;683&quot;&gt;Decision Tree&lt;/span&gt;" style="rounded=0;whiteSpace=wrap;html=1;fillColor=light-dark(#e3ccf0, #EDEDED);" parent="i6hXiYPeF73-tU8b1XCi-1" vertex="1">
          <mxGeometry x="161.5" y="147.5" width="120" height="30" as="geometry" />
        </mxCell>
        <mxCell id="i6hXiYPeF73-tU8b1XCi-22" value="K-Nearest Neighbors (KNN)" style="rounded=0;whiteSpace=wrap;html=1;fillColor=light-dark(#e3ccf0, #EDEDED);" parent="i6hXiYPeF73-tU8b1XCi-1" vertex="1">
          <mxGeometry x="161.5" y="190" width="120" height="30" as="geometry" />
        </mxCell>
        <mxCell id="i6hXiYPeF73-tU8b1XCi-21" value="Neural Network (MLP)" style="rounded=0;whiteSpace=wrap;html=1;fillColor=light-dark(#e3ccf0, #EDEDED);" parent="i6hXiYPeF73-tU8b1XCi-1" vertex="1">
          <mxGeometry x="23.5" y="147.5" width="120" height="30" as="geometry" />
        </mxCell>
        <mxCell id="i6hXiYPeF73-tU8b1XCi-20" value="Random Forest" style="rounded=0;whiteSpace=wrap;html=1;fillColor=light-dark(#e3ccf0, #EDEDED);" parent="i6hXiYPeF73-tU8b1XCi-1" vertex="1">
          <mxGeometry x="23.5" y="190" width="120" height="30" as="geometry" />
        </mxCell>
        <mxCell id="i6hXiYPeF73-tU8b1XCi-31" value="&lt;font style=&quot;color: rgb(0, 0, 0);&quot;&gt;Train Models&lt;/font&gt;" style="rounded=0;whiteSpace=wrap;html=1;fillColor=light-dark(#d5b8ff, #ffa7ff);fontColor=#ffffff;strokeColor=default;" parent="i6hXiYPeF73-tU8b1XCi-1" vertex="1">
          <mxGeometry x="335" y="115" width="120" height="60" as="geometry" />
        </mxCell>
        <mxCell id="i6hXiYPeF73-tU8b1XCi-33" value="" style="swimlane;startSize=0;container=0;fillColor=light-dark(#f7e5ff, #ededed);" parent="1" vertex="1">
          <mxGeometry x="95" y="1110" width="660" height="245" as="geometry" />
        </mxCell>
        <mxCell id="i6hXiYPeF73-tU8b1XCi-34" value="Result Evaluation" style="text;html=1;align=center;verticalAlign=middle;whiteSpace=wrap;rounded=0;fillColor=#f5f5f5;fontColor=#333333;strokeColor=#666666;" parent="i6hXiYPeF73-tU8b1XCi-33" vertex="1">
          <mxGeometry x="15" y="10" width="127" height="30" as="geometry" />
        </mxCell>
        <mxCell id="i6hXiYPeF73-tU8b1XCi-45" style="edgeStyle=orthogonalEdgeStyle;rounded=0;orthogonalLoop=1;jettySize=auto;html=1;exitX=0;exitY=1;exitDx=0;exitDy=0;" parent="i6hXiYPeF73-tU8b1XCi-33" edge="1">
          <mxGeometry relative="1" as="geometry">
            <mxPoint x="152.5" y="100" as="targetPoint" />
          </mxGeometry>
        </mxCell>
        <mxCell id="pQ0Z2_A2pilAzZAvQ04B-1" value="" style="edgeStyle=none;curved=1;rounded=0;orthogonalLoop=1;jettySize=auto;html=1;fontSize=12;startSize=8;endSize=8;entryX=0.5;entryY=0;entryDx=0;entryDy=0;" edge="1" parent="1" source="j8199OsGkyXpgyM0app1-30" target="j8199OsGkyXpgyM0app1-36">
          <mxGeometry relative="1" as="geometry" />
        </mxCell>
      </root>
    </mxGraphModel>
  </diagram>
</mxfile>
